<svg xmlns="http://www.w3.org/2000/svg" viewBox="0 0 512 384">
	<g fill="none" fill-rule="nonzero">
		<circle cx="278.166" cy="213.666" r="107.5" fill="#4398D1"/>
		<path fill="#DE4C3C" d="M469.333 42.667H391.01c-8.552 0-16.583-3.333-22.635-9.375l-17.667-17.667C340.635 5.552 327.24 0 312.99 0h-71.313c-14.25 0-27.646 5.552-37.719 15.625l-17.667 17.667c-6.052 6.042-14.083 9.375-22.635 9.375H128V32c0-5.896-4.771-10.667-10.667-10.667H74.667C68.771 21.333 64 26.104 64 32v10.667H42.667C19.135 42.667 0 61.802 0 85.333v256C0 364.865 19.135 384 42.667 384h426.667C492.865 384 512 364.865 512 341.333v-256c0-23.531-19.135-42.666-42.667-42.666zm-328.334406 95.332648c0 8.291186-6.709114 15.000352-15.000235 15.000352H66.0002344C57.7091139 153 51 146.290834 51 137.999648v-29.999296C51 99.7091663 57.7091139 93 66.0002344 93h59.9995316C134.290886 93 141 99.7091663 141 108.000352v29.999296h-.001406zM277.333 320c-58.813 0-106.667-47.854-106.667-106.667s47.854-106.667 106.667-106.667S384 154.521 384 213.333C384 272.145 336.146 320 277.333 320z"/>
	</g>
</svg>
