<svg xmlns="http://www.w3.org/2000/svg" viewBox="0 0 512 410">
	<style>
		g {
			fill: #000;
		}
		@media (prefers-color-scheme: dark) {
			g {
				fill: #FFF;
			}
		}
	</style>
  <g fill-rule="nonzero">
    <path d="M332.8 153.8c-10.24 0-23.04 2.56-35.84 10.24 7.68 2.56 12.8 10.24 12.8 20.48 0 15.36-10.24 25.6-25.6 25.6-7.68 0-15.36-5.12-20.48-12.8-5.12 10.24-7.68 20.48-7.68 33.28 0 43.52 33.28 76.8 76.8 76.8 43.52 0 76.8-33.28 76.8-76.8 0-40.96-33.28-76.8-76.8-76.8z"/>
    <path d="M486.4 51.4h-25.6L437.76 7.88c0-5.12-5.12-7.68-10.24-7.68H289.28c-5.12 0-10.24 2.56-10.24 7.68L256 51.4H128V38.6c0-7.68-5.12-12.8-12.8-12.8H64c-7.68 0-12.8 5.12-12.8 12.8v12.8H25.6C10.24 51.4 0 61.64 0 77v307.2c0 15.36 10.24 25.6 25.6 25.6h460.8c15.36 0 25.6-10.24 25.6-25.6V77c0-15.36-10.24-25.6-25.6-25.6zM76.8 153.8c-12.8 0-25.6-10.24-25.6-25.6 0-15.36 10.24-25.6 25.6-25.6 15.36 0 25.6 10.24 25.6 25.6 0 15.36-10.24 25.6-25.6 25.6zm256 204.8c-71.68 0-128-56.32-128-128s56.32-128 128-128 128 56.32 128 128-56.32 128-128 128z"/>
  </g>
</svg>
